[Header]                  # Header keywords are followed by a single value
FileType htr              # single word string
DataType HTRS             # Hierarchical translations followed by rotations and Scale
FileVersion 1             # integer
NumSegments   22        # integer
NumFrames   4          # integer
DataFrameRate    60      # integer
EulerRotationOrder ZYX    # one word string
CalibrationUnits mm   # one word string
RotationUnits Degrees     # one word string
GlobalAxisofGravity Y        # character, X or Y or Z
BoneLengthAxis Y
ScaleFactor 1.0000
[SegmentNames&Hierarchy]
#CHILD         PARENT
LowerTorso	GLOBAL
MidTorso1	LowerTorso
MidTorso2	MidTorso1
UpperTorso	MidTorso2
Neck	UpperTorso
Head	Neck
LCollar	UpperTorso
LUpArm	LCollar
LLowArm	LUpArm
LHand	LLowArm
RCollar	UpperTorso
RUpArm	RCollar
RLowArm	RUpArm
RHand	RLowArm
RThigh	LowerTorso
RLowLeg	RThigh
RFoot	RLowLeg
RToe	RFoot
LThigh	LowerTorso
LLowLeg	LThigh
LFoot	LLowLeg
LToe	LFoot
[BasePosition]
#SegmentName Tx, Ty, Tz, Rx, Ry, Rz, BoneLength
LowerTorso	245.858011	950.547112	300.901792	3.160114	-0.119681	0.216534	50.177140	
MidTorso1	0.000000	50.177140	0.000000	12.744977	0.544086	-1.233692	50.243103	
MidTorso2	0.000000	50.243103	0.000000	-8.561622	-5.666755	-0.324056	70.108070	
UpperTorso	0.000000	70.108070	0.000000	-7.840640	5.423498	1.565454	211.798493	
Neck	0.000000	211.798493	0.000000	3.763396	2.354772	0.143986	247.477358	
Head	0.000000	247.477358	0.000000	87.188098	-1.617490	-0.909978	97.755902	
LCollar	5.963899	207.774288	0.020038	-0.085181	3.120430	-88.053499	154.341182	
LUpArm	0.000000	154.341182	0.000000	17.609330	2.601210	1.098979	257.694232	
LLowArm	0.000000	257.694232	0.000000	-4.295116	-4.411555	-0.381267	245.288314	
LHand	0.000000	245.288314	0.000000	-1.254656	0.451892	-3.187610	143.943585	
RCollar	-6.407295	207.548200	-0.033576	-3.957489	-2.573361	89.782717	159.716168	
RUpArm	0.000000	159.716168	0.000000	10.569861	0.025507	1.593474	259.181013	
RLowArm	0.000000	259.181013	0.000000	2.433186	-0.094719	0.439860	254.783021	
RHand	0.000000	254.783021	0.000000	-2.521327	-1.940663	10.821380	138.724995	
RThigh	-104.582724	-43.868855	71.110148	1.186921	1.056410	177.271085	484.665755	
RLowLeg	0.000000	484.665755	0.000000	-9.413113	-2.560999	2.584420	338.943480	
RFoot	0.000000	338.943480	0.000000	38.119802	-1.210697	-2.462270	108.422675	
RToe	0.000000	108.422675	0.000000	62.205972	5.729825	0.107186	135.948299	
LThigh	104.514322	-44.027056	71.110540	1.887019	-3.794944	-176.973714	484.665500	
LLowLeg	0.000000	484.665500	0.000000	-9.413064	2.561022	-2.584327	338.944952	
LFoot	0.000000	338.944952	0.000000	38.119895	1.210631	2.462181	108.422417	
LToe	0.000000	108.422417	0.000000	62.206117	-5.729564	-0.107296	135.948400	
#Beginning of Data. Separated by tabs
[LowerTorso]
#Fr     Tx      Ty      Tz      Rx      Ry      Rz      SF
307	579.412598	-1.467019	547.470215	-158.943939	-40.686378	173.167206	1.000000	
308	572.066467	-36.186867	546.944519	-159.592575	-40.349655	172.819321	1.000000	
309	564.527832	-71.437218	546.261353	-160.880722	-40.338947	172.793686	1.000000	
310	556.323059	-104.610413	545.615723	-162.587662	-40.400314	173.056747	1.000000	
[MidTorso1]
#Fr     Tx      Ty      Tz      Rx      Ry      Rz      SF
307	0.000000	0.000000	0.000000	1.156989	2.294055	-0.454628	1.000000	
308	0.000000	0.000000	0.000000	1.593166	1.495990	-0.381600	1.000000	
309	0.000000	0.000000	0.000000	2.110106	0.874944	-0.227234	1.000000	
310	0.000000	0.000000	0.000000	2.621233	0.483917	-0.013651	1.000000	
[MidTorso2]
#Fr     Tx      Ty      Tz      Rx      Ry      Rz      SF
307	0.000000	0.000000	0.000000	1.095817	2.360231	-0.218324	1.000000	
308	0.000000	0.000000	0.000000	1.537993	1.570076	-0.306851	1.000000	
309	0.000000	0.000000	0.000000	2.070122	0.945236	-0.296713	1.000000	
310	0.000000	0.000000	0.000000	2.602371	0.539429	-0.193594	1.000000	
[UpperTorso]
#Fr     Tx      Ty      Tz      Rx      Ry      Rz      SF
307	0.000000	0.000000	0.000000	1.186198	2.320959	0.212993	1.000000	
308	0.000000	0.000000	0.000000	1.609020	1.532349	0.054284	1.000000	
309	0.000000	0.000000	0.000000	2.117911	0.889775	0.023841	1.000000	
310	0.000000	0.000000	0.000000	2.625110	0.450925	0.115653	1.000000	
[Neck]
#Fr     Tx      Ty      Tz      Rx      Ry      Rz      SF
307	0.000000	0.000000	0.000000	-14.491940	20.834005	-2.331167	1.000000	
308	0.000000	0.000000	0.000000	-15.912273	23.725430	-2.428749	1.000000	
309	0.000000	0.000000	0.000000	-17.140175	26.233288	-2.649372	1.000000	
310	0.000000	0.000000	0.000000	-18.125963	28.550446	-3.137879	1.000000	
[Head]
#Fr     Tx      Ty      Tz      Rx      Ry      Rz      SF
307	0.000000	0.000000	0.000000	1.214276	-3.674814	0.096821	1.000000	
308	0.000000	0.000000	0.000000	1.681484	-4.638523	0.031652	1.000000	
309	0.000000	0.000000	0.000000	1.650891	-5.444942	0.001753	1.000000	
310	0.000000	0.000000	0.000000	1.073470	-6.143589	0.019535	1.000000	
[LCollar]
#Fr     Tx      Ty      Tz      Rx      Ry      Rz      SF
307	0.000000	0.000000	0.000000	5.199620	1.366274	-14.682182	1.000000	
308	0.000000	0.000000	0.000000	5.766848	1.382460	-13.435441	1.000000	
309	0.000000	0.000000	0.000000	6.106772	1.328162	-12.223748	1.000000	
310	0.000000	0.000000	0.000000	6.286982	1.248629	-11.187978	1.000000	
[LUpArm]
#Fr     Tx      Ty      Tz      Rx      Ry      Rz      SF
307	0.000000	0.000000	0.000000	-2.604417	-16.241890	-37.916351	1.000000	
308	0.000000	0.000000	0.000000	-1.268568	-19.723501	-37.660957	1.000000	
309	0.000000	0.000000	0.000000	1.166806	-22.548868	-37.402016	1.000000	
310	0.000000	0.000000	0.000000	4.166802	-24.811689	-37.388477	1.000000	
[LLowArm]
#Fr     Tx      Ty      Tz      Rx      Ry      Rz      SF
307	0.000000	0.000000	0.000000	134.598511	-0.008918	-0.021313	1.000000	
308	0.000000	0.000000	0.000000	133.825119	-0.009036	-0.021192	1.000000	
309	0.000000	0.000000	0.000000	132.388290	-0.009251	-0.020963	1.000000	
310	0.000000	0.000000	0.000000	130.561554	-0.009515	-0.020663	1.000000	
[LHand]
#Fr     Tx      Ty      Tz      Rx      Ry      Rz      SF
307	0.000000	0.000000	0.000000	29.565784	20.349957	-0.541412	1.000000	
308	0.000000	0.000000	0.000000	29.052389	21.570955	-0.200353	1.000000	
309	0.000000	0.000000	0.000000	28.056189	22.708181	-0.434969	1.000000	
310	0.000000	0.000000	0.000000	26.983093	23.345646	-1.178373	1.000000	
[RCollar]
#Fr     Tx      Ty      Tz      Rx      Ry      Rz      SF
307	0.000000	0.000000	0.000000	8.218466	-2.328952	15.714135	1.000000	
308	0.000000	0.000000	0.000000	7.487696	-2.235140	16.527107	1.000000	
309	0.000000	0.000000	0.000000	6.474150	-2.019374	17.250422	1.000000	
310	0.000000	0.000000	0.000000	5.289533	-1.704021	17.806063	1.000000	
[RUpArm]
#Fr     Tx      Ty      Tz      Rx      Ry      Rz      SF
307	0.000000	0.000000	0.000000	17.580292	-16.346041	42.019249	1.000000	
308	0.000000	0.000000	0.000000	18.760021	-15.460932	40.831017	1.000000	
309	0.000000	0.000000	0.000000	20.484589	-14.075127	39.350777	1.000000	
310	0.000000	0.000000	0.000000	22.716589	-12.383747	37.672390	1.000000	
[RLowArm]
#Fr     Tx      Ty      Tz      Rx      Ry      Rz      SF
307	0.000000	0.000000	0.000000	119.770058	-0.000006	0.000053	1.000000	
308	0.000000	0.000000	0.000000	120.485939	-0.000007	0.000054	1.000000	
309	0.000000	0.000000	0.000000	121.307610	-0.000007	0.000054	1.000000	
310	0.000000	0.000000	0.000000	122.152840	-0.000007	0.000054	1.000000	
[RHand]
#Fr     Tx      Ty      Tz      Rx      Ry      Rz      SF
307	0.000000	0.000000	0.000000	14.962781	-13.781402	-8.660648	1.000000	
308	0.000000	0.000000	0.000000	14.065329	-13.999141	-8.157706	1.000000	
309	0.000000	0.000000	0.000000	13.276078	-13.788124	-7.385091	1.000000	
310	0.000000	0.000000	0.000000	12.806482	-13.063657	-6.752375	1.000000	
[RThigh]
#Fr     Tx      Ty      Tz      Rx      Ry      Rz      SF
307	0.000000	0.000000	0.000000	14.498329	-11.464417	-21.284132	1.000000	
308	0.000000	0.000000	0.000000	14.401407	-12.153253	-22.446703	1.000000	
309	0.000000	0.000000	0.000000	14.118427	-12.656991	-22.955050	1.000000	
310	0.000000	0.000000	0.000000	13.781820	-13.345120	-23.021534	1.000000	
[RLowLeg]
#Fr     Tx      Ty      Tz      Rx      Ry      Rz      SF
307	0.000000	0.000000	0.000000	-16.569979	0.000000	-0.000006	1.000000	
308	0.000000	0.000000	0.000000	-21.871534	0.000000	-0.000008	1.000000	
309	0.000000	0.000000	0.000000	-27.982058	0.000000	-0.000010	1.000000	
310	0.000000	0.000000	0.000000	-34.058289	-0.000001	-0.000012	1.000000	
[RFoot]
#Fr     Tx      Ty      Tz      Rx      Ry      Rz      SF
307	0.000000	0.000000	0.000000	-7.904249	1.827468	12.936105	1.000000	
308	0.000000	0.000000	0.000000	0.558254	-0.136438	13.733423	1.000000	
309	0.000000	0.000000	0.000000	9.297987	-2.157452	12.949490	1.000000	
310	0.000000	0.000000	0.000000	16.397688	-3.315254	11.118005	1.000000	
[RToe]
#Fr     Tx      Ty      Tz      Rx      Ry      Rz      SF
307	0.000000	0.000000	0.000000	3.095540	0.000006	0.000001	1.000000	
308	0.000000	0.000000	0.000000	5.481369	0.000010	0.000003	1.000000	
309	0.000000	0.000000	0.000000	7.321790	0.000014	0.000004	1.000000	
310	0.000000	0.000000	0.000000	9.295869	0.000017	0.000005	1.000000	
[LThigh]
#Fr     Tx      Ty      Tz      Rx      Ry      Rz      SF
307	0.000000	0.000000	0.000000	35.018227	-3.708932	12.239695	1.000000	
308	0.000000	0.000000	0.000000	36.908993	-3.406153	12.182061	1.000000	
309	0.000000	0.000000	0.000000	38.451176	-3.190618	11.981812	1.000000	
310	0.000000	0.000000	0.000000	39.377422	-2.637666	11.966459	1.000000	
[LLowLeg]
#Fr     Tx      Ty      Tz      Rx      Ry      Rz      SF
307	0.000000	0.000000	0.000000	-20.508430	0.000036	-0.000016	1.000000	
308	0.000000	0.000000	0.000000	-26.702333	0.000046	-0.000023	1.000000	
309	0.000000	0.000000	0.000000	-34.516972	0.000057	-0.000033	1.000000	
310	0.000000	0.000000	0.000000	-42.281830	0.000066	-0.000045	1.000000	
[LFoot]
#Fr     Tx      Ty      Tz      Rx      Ry      Rz      SF
307	0.000000	0.000000	0.000000	-9.719612	-3.392783	-19.060299	1.000000	
308	0.000000	0.000000	0.000000	-6.114908	-2.169473	-19.460609	1.000000	
309	0.000000	0.000000	0.000000	-0.102782	-0.032789	-17.671604	1.000000	
310	0.000000	0.000000	0.000000	6.759099	1.732043	-14.307222	1.000000	
[LToe]
#Fr     Tx      Ty      Tz      Rx      Ry      Rz      SF
307	0.000000	0.000000	0.000000	-23.334339	-0.000066	0.000006	1.000000	
308	0.000000	0.000000	0.000000	-19.963528	-0.000057	0.000003	1.000000	
309	0.000000	0.000000	0.000000	-15.726538	-0.000045	0.000001	1.000000	
310	0.000000	0.000000	0.000000	-11.536549	-0.000033	0.000000	1.000000	
[EndOfFile]
